<svg width="372" height="237" viewBox="0 0 372 237" fill="none" xmlns="http://www.w3.org/2000/svg">
<ellipse cx="281.711" cy="110.227" rx="15.5919" ry="17.8739" fill="#D9D9D9"/>
<rect width="41.7962" height="37.0747" transform="matrix(0.982881 -0.184241 0.18504 0.982731 251.191 76.8841)" fill="#353535"/>
<path d="M227.968 63.8451L277.065 75.6545L367.522 115.04L154.322 82.523L227.968 63.8451Z" fill="black"/>
<path d="M258.821 48.6616L298.298 32.4426L288.845 92.1781L226.325 70.0161L258.821 48.6616Z" fill="black"/>
<path d="M237.921 34.0976L269.436 49.3235L275.076 80.4375L219.012 76.7965L237.921 34.0976Z" fill="black"/>
<ellipse cx="240.243" cy="102.283" rx="15.2601" ry="17.8739" fill="#D9D9D9"/>
<path d="M199.771 110.227L313.226 152.595L276.735 169.476L204.415 139.024L199.771 110.227Z" fill="black"/>
<path d="M205.079 138.031L277.398 166.828L303.938 237L152 176.096L205.079 138.031Z" fill="black"/>
<rect y="9" width="206" height="213" fill="white"/>
<rect width="12.6083" height="12.6083" transform="matrix(-0.707107 -0.707107 -0.707107 0.707107 214.918 8.91541)" fill="#353535"/>
<path d="M40 9H174V69C174 74.5228 169.523 79 164 79H50C44.4772 79 40 74.5228 40 69V9Z" fill="#939393"/>
<path d="M22 222H189V100C189 94.4772 184.523 90 179 90H32C26.4772 90 22 94.4772 22 100V222Z" fill="#9C9C9C"/>
<path d="M102.077 9H133.5L114.5 79H81L102.077 9Z" fill="white" fill-opacity="0.25"/>
<path d="M75.5 9H90.5L71 79H55L75.5 9Z" fill="white" fill-opacity="0.25"/>
<rect x="131" y="14" width="26" height="60" fill="#454545"/>
</svg>
